<?xml version="1.0" encoding="utf-8"?>
<!-- Generator: Adobe Illustrator 26.0.2, SVG Export Plug-In . SVG Version: 6.00 Build 0)  -->
<svg version="1.1" id="Layer_1" xmlns="http://www.w3.org/2000/svg" xmlns:xlink="http://www.w3.org/1999/xlink" x="0px" y="0px"
	 viewBox="0 0 1475.3 292.5" style="enable-background:new 0 0 1475.3 292.5;" xml:space="preserve">
<style type="text/css">
	.st0{fill:none;stroke:#FFFFFF;stroke-width:10;stroke-miterlimit:10;stroke-opacity:0.99;}
</style>
<g id="Layer_2_00000045577266874869443880000009970235234225718963_">
	<g id="Layer_1-2">
		<path class="st0" d="M35.1,214.6c-9.8-2-17.7-8.7-25.6-15.7c-4.9-4.3-8.1-8.7-6.7-15.3c0.5-2.3,1.1-5,2.6-6.6
			c7-7.6,14.2-14.9,21.5-22.2c3.5-3.5,6.4-3,10.1,0.4c2.7,2.4,6.2,3.8,9.2,5.9c2.4,1.7,4.3,4,6.7,5.7c1.6,1.2,3.5,2.1,5.5,2.5
			c3.1,0.4,6.2,0.1,8.4,3.3c0.6,0.9,2.7,1,4.1,1c10.7,0.1,21.3-0.1,32,0.1c3.6,0.1,5.1-1.2,5-4.9c-0.1-4.3,0.2-8.6,0.1-13
			c-0.1-8-2.4-10.3-10.3-13c-4.3-1.4-8-4.4-12.1-6.6c-3.5-1.9-7.2-5.2-10.6-5c-6,0.3-10-3.5-15-5c-5.9-1.7-11.3-5-17-7.4
			c-4.3-1.8-9-2.8-12.9-5.2c-7.8-4.8-17.7-7.4-20-18.6C9.2,90.9,6,87.3,3.8,83.4C2.4,81,3.8,71,5.7,68.5c0.5-0.4,0.8-1,0.9-1.7
			c0.2-9.2,7.9-13.2,13.7-17.9c5-4.1,11.6-6.1,17.1-9.6c4-2.6,6.8-7.2,11-9c7.4-3.2,12.7-9.2,20.5-12.3c12.4-4.9,24.5-2.9,36.6-3
			c31.8-0.5,63.6-0.4,95.4,0c5,0.1,10.3,2.3,14.8,4.7c2.1,1.1,3.7,5.1,3.8,7.9c0.4,16.1,0.2,32.2,0.1,48.3c0,1.3-0.1,3.4-0.8,3.7
			c-4.5,2.1-3.4,6.1-3.4,9.5c0,17.9,0.1,35.9,0.1,53.8c0,1.2-0.3,3.2-1.1,3.6c-3.8,2-3.3,5.4-3.3,8.6c0,17.6,0,35.2-0.1,52.8
			c0,3.5,1,5.8,3.6,8.8c5.2,6,10.9,7.7,18.2,7c3.3-0.4,6.7-0.4,10,0.1c2.4,0.3,4.6,1.8,6.9,2.7c1.6,0.7,3.3,1.2,5,1.4
			c8.7,0.1,17.3-0.1,26,0.2c2.2,0.1,4.3,1.6,6.5,2.5c1.6,0.6,3.3,1.5,5,1.5c7.5,0.2,15-0.2,22.5,0.2c5,0.3,7.3-3.4,10-6
			c2.3-2.3,0-9.9-2.8-12.6c-0.5-0.6-1.3-1.5-1.2-2.1c0.6-3.9-2.6-5.4-4.5-7.9s-2.9-5.2-4.3-7.9c-0.2-0.6-0.5-1.1-0.9-1.6
			c-1.5-1.5-3.7-2.7-4.5-4.5c-2.8-7-9.3-11.6-11.4-19.1c-1.1-4-4.2-7.4-6.4-11c-0.2-0.3-0.6-0.5-0.6-0.8c-0.1-5.8-4-10.8-4.6-16
			c-1.2-11.5-1.6-23.4,0.1-34.8c0.9-6.4,2.2-13.7,6.9-19.4s8.5-11.8,13.2-17.3c4-4.8,8.1-10.2,13.4-13.1c8.3-4.6,14-11.8,21.3-17.4
			c6.5-5,13.6-9.3,21.1-12.6c4.3-1.8,8.3-4.5,11.6-7.8c0.1-0.1,0.2-0.2,0.4-0.3c5.7-1.7,11.4-4,17.2-5c4.9-0.8,10-0.2,15-0.2
			c3.8,0,7.7-0.7,10.4,3.1c0.6,0.6,1.5,0.9,2.3,0.8c7.3,0.1,12.7,5,19,7.5c6.7,2.6,10.2,8.1,15.5,11.7c6.5,4.3,13.7,8.6,21.7,5.8
			c5.4-2,10-6.2,14.8-9.7c6.3-4.6,11.8-10.5,18.6-14.1c5.7-3,12.7-3.9,19.2-4.9c4.7-0.7,9.6-0.1,14.5-0.1c1.2,0,2.5-0.3,3.5,0.1
			c5.8,2.3,11.5,4.8,17.2,7.2c1.4,0.6,2.8,0.9,4.3,1c4.7,0.2,9.3,0.2,14-0.1c1.9-0.1,3.7-1.5,5.6-2.4c0.4-0.2,0.7-0.9,1.1-1
			c6-1.6,11.9-4.5,17.9-4.6c41.5-0.4,82.9-0.3,124.4-0.1c2.7,0,5.4,1.7,8,2.7c0.8,0.3,1.5,1.1,2.2,1c9.5-0.5,16,6.8,24.4,9.1
			c0.9,0.4,1.7,1.1,2.3,1.9c10.2,11.3,23.6,12.2,37.1,9.7c4.5-0.8,7.7-7.4,12.3-9.3c7.3-3.1,12.5-9,20.1-12
			c12.9-5.1,25.5-2.8,38.2-3c35.3-0.6,70.6-0.2,105.9-0.2c6.6,0,12.1,2.8,17.4,6.2c1.6,1.1,3.4,1.8,5.3,2c5.7,0.3,11.3,0.1,17,0.1
			c3.6,0,7.2,0.3,10.1-3c0.8-1,3.1-0.6,4.7-1.1c2.6-0.8,5-2,7.6-2.8c2-0.8,4-1.2,6.1-1.4c14.2-0.1,28.3,0.1,42.5-0.2
			c3.4-0.1,6.7-1.9,10-3c1.2-0.5,2.5-0.9,3.8-1.1c3.5-0.2,6.8-0.1,9.5-3.2c0.9-1,3.4-0.8,5.2-0.9c5.6-0.4,11.7,1.5,16.4-3.6
			c0.7-0.7,2.5-0.5,3.8-0.5c11.7,0,23.3-0.1,35,0.1c2.1,0,4.1,1.5,6.2,2.3c1.4,0.7,2.9,1.2,4.5,1.5c4.2,0.2,8.3,0.2,12.5,0.2
			c3.2,0,6.3-0.3,8.5,2.9c0.7,0.9,2.7,1.1,4.1,1.1c4.3,0.2,8.7-0.2,13,0.3c2.6,0.3,5,1.8,7.6,2.6c2.5,0.7,5,1.2,7.6,1.5
			c5.1,0.5,9.9-0.2,15,3.2c3.6,2.5,10,1,15.1,1.2c3.3,0.1,6.3-0.1,9.1,2.8c1.4,1.5,5,0.6,7.6,1.2c3,0.8,6,1.9,9,3
			c0.6,0.2,1.2,1,1.7,0.9c6-1.5,10,3.3,15.1,4.7c2.5,0.7,4.2,3.6,6.6,5c2.4,1.5,5.1,2.6,7.9,3.2c3.1,0.5,6.4-0.3,9.5,0.2
			c10.5,1.8,17.1-4.2,24.9-10c5.8-4.3,11.8-9.2,19.5-11.9c19.8-6.8,39.8-1.5,59.6-3.4c1-0.1,2.4,0,2.8,0.6c3.6,4.5,8.6,3.6,13.3,3.7
			c5.9,0.1,8.5,5.1,12.5,8.1c0.9,0.7,1.4,1.9,2.2,2.7c6.1,6.1,6.4,11.8,0.3,18.1s-12,12.4-18.5,18.2c-2.7,2.4-6.3,4-9.8,5.4
			c-1.2,0.5-3.5-0.7-4.7-1.9c-2.2-2.5-4.3-5.1-6.2-7.8c-0.3-0.4-0.4-1.1-0.7-1.3c-4.5-1.8-9-4.2-13.7-5.2c-4.3-0.9-9,0-13.4-0.4
			c-2.2-0.2-4.3-1.7-6.4-2.6c-1-0.4-2-1.2-3-1.2c-8.5,0-17,0.1-25.5,0.1c-3.6,0-5.2,1.4-4.8,5.1c0.1,2.2,0,4.3-0.2,6.5
			c-0.2,3.3,0.4,6.2,3.9,7.7c6.2,2.7,11.8,6.7,19.1,6.7c2.5,0,5,1.7,7.4,2.8c3,1.4,5.9,3.2,9,4.4c5.1,2,10.3,3.6,15.4,5.3l2.9,0.6
			c5.4,2.6,11,5.1,16.1,8.2c3.3,2,5.8,5.4,9,7.8c4.2,3.3,9.3,5.6,12.9,9.5c4.8,5.2,8.6,11.3,12.7,17.2c0.5,1,0.8,2.2,0.7,3.4
			c0.1,7,0.4,14.1-0.1,21.1c-0.2,3.2-1.4,6.3-3.4,8.8c-5.6,6.1-11,13.1-18.1,16.9c-13.4,7.2-21.3,20-32.8,28.8
			c-4.1,3.1-9.8,4.2-14.8,6.3c-2.1,0.9-4.3,1.7-6.4,2.5c-1.4,0.7-2.9,1.2-4.5,1.4c-5.2,0.2-10.3,0.2-15.5,0.1
			c-3.5-0.1-7.4,1-9.8-3.2c-0.5-0.8-2.8-0.8-4.2-0.8c-7-0.1-14.1-0.7-21,0.1c-7.4,0.9-12.8-2.7-18.1-6.3c-4.9-3.3-9.5-7.1-13.7-11.4
			c-5.1-5-11.4-4.4-16.8-2.5c-6.1,2.1-11.3,6.6-16.9,10s-11.2,6.9-17.1,9.8c-5.6,2.8-11.5,5.1-17.4,7.4c-1.9,0.7-3.8,1-5.8,1
			c-10.2,0.1-20.3,0.2-30.5-0.1c-2.5-0.1-5-1.3-7.4-2.1c-1.1-0.4-2-1.3-3.1-1.4c-14.2-1.7-24.4-10.8-34.7-19.4
			c-5.8-4.9-11-10.5-16.4-15.8c-4.3-4.2-17.3-4.5-21.5-0.1c-8.6,9-16.9,18.3-25.4,27.3c-11.7,12.3-23.5,24.5-35.2,36.7
			c-4.3,4.4-8.3,9.2-13,13.1c-3.7,3.1-8.3,5.2-12.6,7.5c-1.1,0.5-2.3,0.6-3.4,0.3c-4.9-2.2-10.2-3.9-14.3-7.1s-5.2-8.2-5.8-14
			c-1.3-13.1,7.3-19.9,14.5-28.1c6.7-7.6,13-15.4,19.3-23.3c4.9-6.1,9.5-12.5,13.8-19.1s7.7-13.8,11.5-20.7s7.7-13.7,11.1-20.7
			c2.2-4.6,3.9-9.4,5-14.3c0.8-3.7,0.1-7.6,0.5-11.4c0.9-9.9-3.2-18.1-8.3-26.2c-6.3-10-14.3-18.7-23.7-25.8
			c-9.8-7.5-21.1-8-32.2-5.6c-6.3,1.4-16.7,12.7-16.5,22.8c0.3,21.8,0.1,43.5,0.1,65.3c0,10.3-0.8,20.7,0.2,30.9
			c0.9,9-2.4,16.9-4.7,24.9c-1.8,6.5-6.5,11.9-12.8,14.4c-5.7,2.2-10.9,6.3-16.7,7.4c-10,2-20.4,4.8-30.7,0.7
			c-1.7-0.6-3.2-1.8-4.1-3.4c-2.3-5.3-5.8-10.1-5.7-16.5c0.1-4.9,1.9-10.4-3.5-14.6c-3.8-2.9-9.8-4.6-13.4-1.5
			c-9.9,8.4-19.4,17.3-29.5,25.6c-5.2,4.6-11.1,8.4-17.5,11.2c-13.3,5.6-26.5,2.5-39.8,3.3c-7,0.5-14.3,1.3-20.8-3.2
			c-1.1-0.8-3-0.3-4.4-0.8c-6.4-2.3-12.9-4.3-18.9-7.3c-4.9-2.6-9.5-5.8-13.6-9.6c-6.8-6.2-12.3-13.8-9.6-23.3
			c2-6.4,5.3-12.4,9.7-17.5c4.6-5.5,10.4-10.1,16.2-14.4c3.5-2.6,7.9-3.9,11.9-5.5c1.1-0.2,2.3,0.1,3.2,0.8
			c6,4.2,11.8,8.9,18.1,12.6c5,2.9,10.6,4.7,16.1,6.7c4.6,1.8,9.3,3.1,14.1,4c4.1,0.6,8.2,0.4,11.9-3.2c4.2-4.1,4.4-11.1-0.5-14.7
			s-9.8-6.9-15.9-8.4c-4.6-1.1-8.7-4.3-13.3-6.1c-5.9-2.3-12-4-18-5.9c-0.9-0.3-2.2-0.2-2.9-0.7c-8-6.4-17.2-2.5-25.9-3.1
			c-1.2-0.1-2.5,1.4-3.7,2.1c-9,6-17.7,12.7-27.3,17.6c-8.3,4.3-17.7,6.5-26.6,9.4c-7.7,2.6-15.3,5.4-23.2,7.3
			c-4.6,1.1-9.7,0.2-14.4,1.2c-4.4,0.9-8.5,3.2-12.7,4.9c-0.5,0.2-0.8,0.7-0.9,1.2c-1.5,6.1-3.8,12.2-4.2,18.4
			c-0.7,12.1-0.3,24.2-0.4,36.4c-0.1,7.9-7.3,16-15,18.3c-5,1.5-9.6,4.5-14.3,6.8c-0.1,0.1-0.3,0.3-0.4,0.3
			c-11.1,3.8-22.2,7.4-34.2,4.9c-4-0.8-10.9-10.2-10.9-14.4c0-6.1-0.1-12.3-0.1-18.4c0-3-1.2-4.1-4.4-4.5c-7.7-1-13,1.6-17.8,7.7
			c-8.7,11-18,21.5-27.3,31.9c-4.4,4.9-9,10.1-14.6,13.2c-3.9,2.2-9.6,1.3-14.5,1.3c-1.7,0-3.4-1.4-5-2.4c-5.5-3.3-3.9-8.9-4.3-13.8
			c-0.2-3.8-0.1-7.6,0.2-11.4c0-1.1,0.2-2.3,0.7-3.3c2.9-4.9,5.7-9.8,8.9-14.4c5.9-8.5,12.3-16.8,17.8-25.5
			c5.1-8.1,9.6-16.7,14.1-25.2c4.3-8.2,9.2-16.3,12.1-25c4.3-12.6,8.5-26.1,4.3-39.1c-3.7-10.9-10.5-20.5-19.6-27.5
			c-5.1-4-9.8-8.4-15.3-11.6c-4.3-2.5-9.6-4.7-14.3-4.5s-9.9,2.9-13.8,6c-5.7,4.5-12,9.5-15.1,15.8c-2.9,5.7-7.3,11.6-5.7,19.2
			c1.2,6-2,11.7-2.6,17.5c-1.2,12.5-0.6,25.2-0.7,37.8c-0.1,8.6-0.1,17.3-0.3,25.9c-0.4,14-8.2,22-21.1,28.1
			c-9.8,4.6-19,4.2-28.8,3.6c-5.1-0.3-12.3-8.9-12.3-14.1c0-31.9-0.2-63.8,0.2-95.7c0.1-10.1-4.6-17.5-10.4-24.7
			c-5.4-6.9-13-11.2-20.7-14.8c-6.5-3-12.7,0.4-17.9,4.5c-7.1,5.7-11.6,13-15.4,21.5c-6.9,15.5-3.5,31-2.7,46.5
			c0.3,6.7,4.3,13.3,6.8,19.8c3,7.8,5.8,15.6,9.4,23.2c3.1,6.2,6.5,12.2,10.3,17.9c4.5,7.2,9.3,14.3,14.2,21.2
			c3.2,4.5,7,8.6,10.4,12.9s6.5,8.5,9.6,12.8c0.6,1,0.9,2.1,1,3.2c0.2,1.6-0.3,3.4,0.1,5c2.2,8.7-4.1,13.1-9,18.2
			c-0.3,0.4-0.8,0.7-1.3,0.7c-8.5,0-17.1,2.2-25.4-1.9c-7.5-3.6-15.9-3.3-23.3-0.6c-9.3,3.3-18,7.7-28.2,7.6c-2.6,0-5.3,1.5-7.9,2.2
			c-1.7,0.6-3.4,1-5.2,1.2c-5.7,0.1-11.3,0.3-17-0.1c-3.5-0.3-6.9-1.9-10.4-2.3c-6.2-0.8-12.5-1.3-18.8-1.4
			c-10.3-0.3-20.6-0.2-31-0.3c-1.8,0-4,0.2-5.3-0.7c-4.9-3.6-10.4-3-15.8-3.1c-8-0.1-16-0.2-24-0.2c-5.3,0-10.6,0.3-15.4-3
			c-1.6-0.8-3.5-1.1-5.3-0.8c-11.7,1-19.7-5.1-26.5-13.6c-0.7-1.3-1.1-2.7-1-4.2c-0.1-4.8-0.1-9.6,0-14.5c0.1-3.9-0.9-7.9,2.8-11
			c0.9-0.8,1-2.8,1-4.3c0.1-7.8,0.1-15.6,0.2-23.4c0.1-3.3-1.3-4.2-4.6-4.9c-10-2-14.7,5.5-21,10.5c-5.4,4.3-10.7,8.3-17.5,11.2
			c-13.8,5.8-27.6,2.1-41.2,3.4c-7.6,0.8-15-0.1-21.5-4.1C37.7,221.2,37,217.9,35.1,214.6z M1248.5,174.1c7.8-0.2,15.3-3.3,21.1-8.6
			c5-4.4,9.1-9.8,9.4-17c0.2-1.1,0.6-2.2,1-3.3c1-3.9,2.3-7.7,2.9-11.6c0.8-5.6-0.7-11.4,2.4-17c1.3-2.5,0.1-6.4-0.3-9.7
			c-0.4-3-2.1-6.1-1.8-9c0.9-6.5-2.6-11.8-5.8-15.8c-8.3-10.2-18.9-17.7-32.9-18.3c-1.1,0.1-2.3-0.2-3.3-0.7
			c-5.1-3.8-11-2.9-16.7-3.5c-2.7-0.5-5.4-1.2-8-2.3c-6.6-2-13.1-3-19.6,0.6c-5.7,3.1-9.2,7.5-11.7,13.7c-3.9,9.5-4.6,19.6-7,29.4
			c-0.1,0.3-0.1,0.7,0,1c1.5,7.5,5.1,14.7,4,22.7c0,0.3,0.1,0.6,0.3,0.9c5,8.7,8.5,18.2,16.5,25.1c7,6,14.1,11.5,22.9,14.5l14.7,5.1
			C1240.5,171.6,1244.5,172.8,1248.5,174.1z M936,89.8L936,89.8c0-8.3-0.2-16.6,0.1-24.9c0.2-5.1-3.9-7.1-6.8-8.6
			c-2.4-1.2-6.9-0.1-9.6,1.5c-3.6,2.1-6.5,5.5-9.5,8.5c-3.9,4-8.1,6.8-14.1,6.5s-9.2-2.4-10.7-8.3c-0.3-1.2-0.6-3.1-1.4-3.4
			c-4.7-2-9.5-4.7-14.5-5.3c-7.9-0.8-15.9-0.9-23.9-0.4c-11.9,0.5-11-1.9-11,11.5c0,2,0.3,5.1,1.6,5.8c5.7,3.3,11.7,6.2,17.8,8.7
			c5,2,10.4,3.2,15.6,4.8c0.6,0.3,1.2,0.6,1.7,1c4.2,2.3,8.3,4.5,12.5,6.8c5.3,2.8,10.7,5.4,15.8,8.5c4.9,2.9,10.4,5.6,13.9,9.7
			c4.8,5.7,9.9,7.6,17.1,7.1c4.5-0.3,5.7-1.8,5.6-6C935.9,105.4,936,97.6,936,89.8L936,89.8z M671.8,92.1c0.5,8.2-2.1,18,4.5,26.2
			c1.6,2,3.9,4.3,6.1,4.6c5.7,0.8,11.6,0.3,17.4,0.6c11.3,0.6,18.9-5.9,25.8-13.5c5.1-5.6,7.1-12.5,4.5-19.9
			c-6.2-18-21.5-25.1-38-30.1c-10.4-3.1-21.3,7.7-20.4,17C672.2,81.7,671.8,86.4,671.8,92.1L671.8,92.1z M69.5,55.6
			c0,5.3-0.1,9.9,0,14.5c0,1,0.4,1.9,1.1,2.5c6.2,3.1,12.4,6.2,18.8,8.9c5,2.1,10.3,3.3,15.4,5.3c5.7,2.3,11.4,4.6,16.9,7.4
			c4,2.1,7.7,4.9,11.6,7.4c2.6,1.7,5,4.2,7.8,4.8c4.2,0.8,8.6,0.2,12.9,0.2c3,0,3.8-1.6,4.2-4.3c0.5-4,1.9-7.9,2.5-12
			c1.1-6.9,4.4-14.1-2.7-20.1c-2.7-2.2-14.1-4-16.1-1.3c-3.3,4.2-7.6,3.5-11.8,3.6c-5.9,0.1-8.7-2.5-10-8.3c-0.3-1.2-0.6-3-1.4-3.5
			c-3.9-1.9-7.9-4.7-12-4.9C94.7,55.2,82.5,55.6,69.5,55.6z M1395,170.8c0.1-0.5,0.3-1,0.4-1.5c3.2,0,6.4,0.4,9.5-0.1
			c2.5-0.4,6.8-1.5,7-2.7c0.5-4.6,1.5-11.5-1-13.6c-6.8-5.7-15-9.7-23-13.7c-4.7-2.4-10.6-2.7-15-5.6c-6.6-4.3-13.4-2.8-20.2-2.9
			c-1.1,0-3.1,1-3.1,1.6c-0.2,4.9-2,11.4,0.4,14.5c5.3,6.8,12.1,13.4,19.8,17.3S1386.4,168.7,1395,170.8z M1131,34.1
			c0,0.3-0.1,0.5-0.2,0.8c-2.7-0.1-5.3-0.1-8,0.1c-1.3,0.1-3.1,0.9-3.6,1.9c-2.3,4.7,0,15.2,3.8,18.5c2.9,2.6,5.6,5.8,8.9,7.7
			c2.2,1.3,6.1,1.9,8,0.7c4.3-2.6,8-6.4,11.6-9.9c4.5-4.5,2.8-14.1-3.2-16C1142.7,36.1,1136.8,35.3,1131,34.1L1131,34.1z"/>
	</g>
</g>
</svg>
