<svg xmlns="http://www.w3.org/2000/svg" viewBox="0 0 415.78 277.36"><g id="Layer_2" data-name="Layer 2"><g id="Layer_1-2" data-name="Layer 1"><path d="M0,139Q0,81.64.05,24.27C.06,11,6.35,2.84,18.1.44,24-.77,29.21,1.27,34.2,4.16Q89.79,36.35,145.39,68.53q43.55,25.18,87.09,50.36c11,6.4,15.31,16.75,11.37,27.24-2.22,5.93-6.72,9.61-12.07,12.7q-83,48-165.94,96C55.21,261,44.61,267.25,33.93,273.32,17.08,282.9.16,273.23.08,253.76-.07,215.52,0,177.27,0,139Z"/><path d="M373,138.41q0-62.13,0-124.25c0-9.51,4.49-14,14-14.13q7.24,0,14.47,0c9.67.07,14.38,4.74,14.38,14.42q0,75.59,0,151.19v95.8c0,11.6-4.31,15.92-15.91,15.9-4.66,0-9.32.07-14,0-8.17-.17-12.93-5-12.93-13.15Q372.93,201.29,373,138.41Z"/><path d="M330.5,138.89q0,60.87,0,121.74c0,13-3.71,16.69-16.55,16.7H302.46c-10.41,0-14.82-4.36-14.85-14.9-.06-23.61,0-47.23,0-70.84q0-87.57,0-175.12C287.59,3.93,291.47,0,303.9,0c4,0,8,0,12,0,10.06,0,14.56,4.45,14.6,14.63.08,18.3,0,36.59,0,54.88q0,34.68,0,69.35Z"/></g></g></svg>