<?xml version="1.0" encoding="utf-8"?>
<!-- Generator: Adobe Illustrator 26.3.1, SVG Export Plug-In . SVG Version: 6.00 Build 0)  -->
<svg version="1.1" id="Layer_1" xmlns="http://www.w3.org/2000/svg" xmlns:xlink="http://www.w3.org/1999/xlink" x="0px" y="0px"
	 viewBox="0 0 2650.7 269.9" style="enable-background:new 0 0 2650.7 269.9;" xml:space="preserve">
<style type="text/css">
	.st0{opacity:0.4;}
	.st1{fill:#B6B6B6;stroke:#000000;stroke-width:2;stroke-miterlimit:10;}
</style>
<g id="Layer_2_00000075135636026165164030000011431714107823874193_" class="st0">
	<g id="Layer_1-2">
		<path class="st1" d="M2.5,191.8c0.5-0.3,1.4-0.6,1.4-0.9c0.7-12.1,9.5-19.1,17.5-26.1c6.1-5.4,13.2-9.8,20.2-14.2
			c9-5.7,17.7-11.9,21.2-22.1c2.6-7.4,2.1-15.5-1.4-22.5c-2.8-5.7-6.7-11.3-7.8-17.4c-1.2-6.3-0.2-13.2,0.9-19.7
			c1-6,3-11.8,5.7-17.3C65.5,41.2,73.5,33,85.4,29.9c5.4-1.5,11.1-2.2,16.6-3.5c12.9-2.9,26-2.7,39-4c8.8-0.9,17.1,0.9,25.6,0.8
			c8.7-0.1,17.2,3.8,21.4,12.1c2,3.9,0.8,9.4,0.9,14.2c0,1.4-0.9,2.7-1.3,4.1c-1,3.2-3.3,4.1-5.9,1.9c-4.7-3.8-10-2.6-14.9-1.5
			c-9.1,1.9-16.2,7.7-21.9,14.8c-4.9,6-8.6,13.4-3.8,19.9c2.2,2.8,5.3,4.8,8.7,5.7c10.7,2.2,21,6,30.5,11.2
			c9.6,5.2,17.8,12.7,23.8,21.8c0.8,1.2,2.1,2,2.9,3.2c6.8,9.1,13.5,18.3,20.3,27.6c0.7-0.7,1.2-1.5,1.6-2.5
			c2.2-11.4,6.4-22.4,12.2-32.5c3.7-6.2,7.8-12.1,11.4-18.4c1.1-2.1,1.7-4.3,1.8-6.6c0.3-3.9-0.2-7.8,0.1-11.7
			c0.5-6-2-11.2-4.2-16.4s-1.1-7.3,4.1-7.8c4.2-0.4,6.3-3.2,7.4-7.3c1.2-4,3-7.7,5.3-11.2c3.3-5,5.7-11.2,12.3-12.9
			c2.8-0.8,5.7-0.9,8.6-0.5c2.6,0.6,4.9,1.8,7,3.4c3.5,2.5,6.3,5.2,6.2,10.3c-0.1,8-0.2,15.9-4.3,23.1c-4.8,8.6-10.5,16.8-14.6,25.6
			c-4.7,10-5.1,19.5,4.4,29c4.9,4.9,9.6,9.7,9.2,17.6c-0.2,4.6,1.4,9.3,1.3,13.9c-0.1,7.4-1.5,14.7-1.5,22c0,9.2,4.4,15,13.9,16.4
			c9.7,1.5,19.1,4.7,28.8,6.6c6,1.2,11.7-0.2,17.3-3.2c4.8-2.6,10-4.4,15.5-5.3c10.5-1.9,20.3,1.9,29.9,5.6
			c4.1,1.8,7.9,4.3,11.2,7.3c9.3,8.1,18.2,16.5,27.6,25.1c-4.4,3.1-8.1,6-12.1,8.3c-5.6,3.2-11.3,7.1-17.4,8.4
			c-6.6,1.5-13.7,1-20.5,0.2c-6-0.7-11.7-3.1-17.6-4.8c-7-2-13.9-4.2-20.8-6.2c-7.5-2.2-14.4-5.6-22.5-6.8
			c-16.9-2.5-31.3,3.2-45.8,10.2c-8.6,4.3-17.4,8.1-26.3,11.4c-2.8,1-6.6-0.6-9.9-0.7c-4.1-0.2-8.2-0.1-12.2,0.2
			c-4.9,0.5-9.7,2.3-14.6,0.9c-0.7-0.2-1.3-0.6-1.8-1.2c-2.6-3-5.1-2.4-8.6-0.8c-4.1,1.9-8.8,2.7-13.3,3.8c-8.7,1.9-17.4,3.5-26,5.3
			c-0.7,0.1-1.5,0.1-2.2,0.1c-10.3,0.6-20.7,0.8-30.9,2c-10.7,1.3-21.3,3.6-31.9,5.4c-7.3,1.2-14.7,3.1-22,3.2
			c-11.2,0.1-21.9-3.6-31.5-9.4c-8.3-5-16.9-10-23.7-16.6c-7.5-7.3-14.1-15.8-18-25.8c-2-5-3.8-10-5.6-15c-0.2-0.6-1-0.9-1.5-1.3
			L2.5,191.8z M120.8,181c-4.4-1.8-9,1.5-13.1,4.2c-5,3.3-8.6,7.9-8.3,14.9c0.3,7.7,1,15,3.4,22.5c2.8,8.6,10.6,17.4,19.6,17.6
			c7.7,0.2,15.6,1.1,23.3-1.6c5.6-2,9.1-8.4,6.1-13.5c-2.2-3.7-4.7-7.2-7.5-10.5c-4.1-5-8.8-9.6-12.6-14.8
			C127.9,194.3,124.9,188.1,120.8,181z M89.7,145.9c-0.6-3.4-1.8-4.5-4.5-4.5c-3.6,0-7-0.1-9.3,3.5c-1.9,2.9-4.5,5.2-6.3,8.1
			c-0.6,1.4-0.5,3.1,0.4,4.4c1.2,1,2.8,1.3,4.4,0.9c3.2-1.1,6.6-2.5,9.1-4.6S87.7,148.6,89.7,145.9z"/>
		<path class="st1" d="M2158,178.4c6.8-0.8,12.8-1.8,18.9-2.1c4.8-0.3,9.5-1.7,13.7-4.1c3.9-2.1,7.9-4,12-5.9
			c5.3-2.4,11.9-1.2,17.1,3.8c-5.3,2.6-10.2,5.2-15.2,7.5c-9.9,4.4-19.2,9.4-25,19.1c-2.4,4.1-4.4,4.4-7.8,1.1
			c-4.5-4.4-9-8.7-13.4-13.1c-2.1-2.1-3.1-2-3.8,0.9c-0.2,1.1-1.2,2.2-1.1,3.2c0.1,2,0.1,4.4,1.3,5.8c2.4,3,5.9,5.3,8.4,8.2
			c5.6,6.7,13,8.4,21.4,9.2c11,0.9,19.2-3.4,26.3-11c5-5.3,10.3-10.2,15.4-15.4c4.9-4.8,10.9-8.2,17.6-9.8c5-1.4,9.9-2.7,14.1-6.9
			c3.2-3.3,9-3.8,13.2-6.3c5.8-3.5,11.1-7.7,16.6-11.6c2.2-1.5,4.4-3,6.7-4.5l-0.6-1.5l-33.5,10.9c0.5-1.1,1.2-2.2,1.9-3.3
			c3.1-3.5,7.1-6.5,9.4-10.5c2.1-3.6,2.7-8.2,3.4-12.5c0.5-3.6,0.5-7.2,0.1-10.8c-1.2-11.2,4.7-18,14.3-22.1
			c7.8-3.3,15.9-5.7,24.6-5.4c9.1,0.3,18.3,0,27.4,0.1c2.1,0,4.2,0.8,6.3,1.3c0.6,0.2,1.2,0.3,1.8,0.3c6.8-1.3,13.9-2.1,20.5-4.3
			c6-2,11.3-4.6,17.2,0.2c1.9,1.6,5.1,1.4,7.4,2.7c4.5,2.5,6.4,6.2,2,11c-3.5,3.8-8,4.9-12.3,6.8c-6,2.6-11.7,5.6-17.5,8.6
			c-7.5,4-14.3,9-22.8,11.4c-5.3,1.5-10,5.1-14.9,7.9c-9.9,5.7-20,11.1-29.5,17.5c-5.9,4-10.2,10.1-10.1,18
			c0.1,7.6-2.1,14.6-4.9,21.6c-2.3,5.9-5,11.8-7,17.8c-2.3,6.8-8.3,8.3-13.8,10.3c-8.9,3.3-18.3,4.4-27.7,5.9
			c-16.2,2.7-32.4,1.3-48.6,0.9c-6.8-0.1-13.9-4.1-20.1-7.7c-6-3.5-11.6-7.5-18.2-9.8c-2.4-0.8-4.4-2.8-6.8-3.5
			c-4.8-1.3-7.6,2.8-11.1,4.9c-10.4,6.5-20.8,13.1-31.1,19.7c-0.5,0.2-1.1,0.3-1.7,0.3c-9.9,0.6-19.8,1.3-29.7,1.8
			c-4.3,0.2-8.4-3.5-9.5-7.6c-0.4-1.6-1.1-3.5-2.3-4.6c-8-6.7-11.6-15.3-14.2-25.2s0.9-19,1.9-28.4c0.9-8.9,2.4-18,1.8-26.9
			c-0.5-6.6-3.6-13.1-8-18.4c-4.2-5.1-8.2-10.6-13.3-14.8c-6.4-5.2-13.8-9.3-20.8-13.8c-0.4-0.2-1.2,0.1-2,0.1
			c-0.9,7.7-1,15.2,2,22.3c3.4,8.4,5.6,17,4.7,26.1c-0.2,2.3-1.8,4.6-1.6,6.7c0.8,7.5,2.1,15,3.2,22.5c0.5,3.2,1.4,6.3,1.9,9.4
			c1.3,8.8,5,17.3,3.8,26.5c-0.9,6.6-3.1,11.7-9.2,15.8c-7.9,5.1-16.6,9-25.7,11.5c-5.2,1.4-10.6,1.2-15.6-0.7
			c-11.9-5-23.5-10.7-34.8-17c-3.4-1.9-5.9-6-7.9-9.6c-2.5-4.5-3.8-9.8-6.2-14.4c-4.5-9-6.2-19.2-4.7-29.1c0.9-5.6,2.9-11,5.7-15.9
			c1.4-2.6,4.9-4.5,7.9-5.9c6.2-3,11.9-6.7,16.3-12c1.9-2.3,2.7-5.6,4-8.4c3.2-6.7-0.6-12.6-2-18.8c-0.2-0.9-1.9-2.1-3.1-2.2
			c-6.4-0.8-12.9-1.2-19.3-2c-3-0.4-6.3-0.7-8.8-2.2c-1.5-0.9-2.7-3.9-2.6-5.9c0.3-6-1.4-10.9-6.8-14.8c-1,2.9-2,5.7-3,8.4
			c-1.9,5.5-6.6,8.3-11.1,11.2c-3.6,2.4-7.5,4.5-10.7,7.4c-5.8,5.1-11.3,10.5-16.4,16.3c-1.8,2.1-1.9,5.8-2.4,8.8
			c-0.8,5.2-1.8,10.5-1.9,15.7c-0.1,9.7-3.2,18.6-6.8,27.4c-5.9,14.2-12,28.3-18.4,42.3c-3.5,7.7-10.5,11.9-18.2,14.6
			c-5.6,2-11.2,3.8-17,5.2c-4.6,1.1-9.2,1.7-13.9,2c-5.2,0.4-10.5,0.4-15.7,0c-13-1.2-25.5-3.8-36.4-11.7
			c-4.8-3.4-10.4-5.7-15.6-8.7c-6.4-3.8-12.3-8.3-19-11.2c-7.3-3.3-15.3-5.3-23-7.9c-8.7-2.9-17.4-5.4-25.9-8.7
			c-10-3.8-19.7-8.4-29.8-12.1c-6.6-2.4-7.6-7.8-8.2-13.1c-0.7-5.9-0.2-12-0.2-18c-0.1-0.4-0.1-0.9,0-1.3c4.2-8.1,0.4-13.9-5.6-19.1
			c-0.7-0.8-1.3-1.7-1.9-2.7c2.6-1.9,5.3-3.9,8-5.9c9.8-7.5,20.5-13.9,26.6-25.6c2.9-5.6,8.1-8.8,14.8-10.4c8.3-2.1,16.7-2,24.8-1.2
			c11.2,1.2,22.7,1.3,33.2,6.6c8.2,4.1,10.7,10.6,8.2,19.4c-2.1,7.7-4.8,15.1-9.8,21.2c-3.4,4.1-7.6,7.5-12.4,10
			c-5.8,3.1-12.2,5.2-18.5,7.5c-6.1,2.2-12.3,4.2-19.5,6.6c2.8,4.1,5.2,8.7,8.5,12.5c4.8,5.5,10,10.6,15.6,15.3
			c8.2,6.8,16.9,12.9,25.5,19.3c10.6,7.8,23.2,11,35.1,15.9c8.3,3.4,16.6,6.6,25.9,5.6c7.3-0.8,14.9-0.4,21.9-2.1
			c8.3-2,13.6-8.5,17-16.2c3.3-7.5,2.4-15.6,1.7-23.3c-0.7-7.4-3.4-14.7-4.8-22.1c-1.5-7.9,0.5-15.1,4.8-21.8
			c4.6-7,9.7-14,10.7-22.4c1-7.8-2.3-14.5-8.1-19.9c-2.1-2-4.1-4.2-6.3-6c-2.5-2.1-2.2-4.2,0.2-5.7c4.4-2.8,9.1-5.2,13.7-7.7
			c3-1.6,6.5-2.6,9.2-4.6c5.8-4.2,10.9-9.5,17-13.2c4.7-2.8,10.4-4,15.8-5.7c3-0.9,6.3-1.9,9.4-1.8c12.5,0.4,24.2,3.4,33.6,12.5
			c1.2,1,2.6,1.6,4.2,1.7c3.4,0.2,7-0.4,10.3,0.2c6.1,1.1,12.1,2.8,18.1,4.3c3.7,0.9,7.3,2.3,11,2.6c4.8,0.5,9.6-0.2,14.4,0.2
			c6.3,0.4,11.7-2,17.3-4.2c7.4-2.9,14.9-5.6,22.3-8.4c2.9-1.2,5.9-2.3,9-3.1c5-1.2,9.3,0,14.1,2.7c8.7,5,14.1,12.6,19.8,20.2
			c2.3,3,4.6,5.9,6.7,9c4.9,7,9.9,13.9,14.6,21c6.9,10.2,12.8,21,18.8,31.8c3.9,7,12,10.7,19.7,13.6c2.7,1.1,5.6,1.7,8.5,1.8
			c7.1,0.2,11.2-3.4,12.5-10.5c0.6-3.3,1.7-6.6,1.6-9.9c-0.2-9.1-3.8-17.1-8.7-24.7c-6.8-10.7-15.2-19.9-23.6-29.3
			c-4.5-4.8-7.1-11.2-7.2-17.8c-0.1-4.8-1.8-9.6-1.5-14.4c0.4-6.2,2-12.3,3.1-18.4c0.6-3.3,0.8-6.8,2.1-9.8
			c4.5-11.4,12.1-15.7,22.8-10.7c5.6,2.7,10.8,6.7,15.8,10.6c8.8,6.7,17.4,13.8,26,20.7c5.9,4.7,10,10.5,11,18.2
			c0.5,4,1.9,8.1,1.6,12.1c-0.5,6.9-2.2,13.8-3.1,20.7c-1.7,12.9-7,25-5.9,38.6c1.1,13,0.3,26.1,0.1,39.1
			C2159.9,170.2,2158.9,173.6,2158,178.4z M2346.6,123c1.3,0.4,1.6,0.6,1.9,0.6c11-2.8,20.7-9.1,27.8-18c2.7-3.3,6.1-6.9,4.8-12.1
			c-0.3-1.2-0.7-2.4-1.1-3.6c-1.2,0.6-2.7,0.9-3.6,1.9c-3.6,4.1-6.8,8.6-10.6,12.5C2359.7,110.5,2353.3,116.4,2346.6,123L2346.6,123
			z M1946.2,80c-4.3,1-7.6,1.4-10.5,2.7c-1.6,0.7-2.8,2.5-3.8,4.1c-0.3,0.4,0.9,2.5,1.5,2.5c2.4,0,5.2,0.2,6.9-1.1
			C1942.5,86.6,1943.7,83.7,1946.2,80L1946.2,80z"/>
		<path class="st1" d="M1099.8,127.2c-7.5-3.9-14.8-8.2-22.5-11.8c-10.4-4.8-20.9-9.3-31.7-13.2c-14.4-5.2-24.9,1.9-30.9,14.1
			c-2.5,4.9-5.1,9.9-6.7,15.1c-1,3.3-0.3,7.1-0.6,10.7c-0.7,7.7,1.1,15.3,5.1,21.9c4.4,7.5,6.8,16.1,11.2,23.6
			c5.3,9,12.3,17.1,17.6,26.1c4.6,7.9,12.2,12.3,18.5,18.1c3.7,3.4,8.3,5.6,12.5,8.4c1.1,0.7,2.1,1.6,3.3,2.5
			c-4.8,6.7-10.2,11.2-19,10.2c-7.6-0.9-15.4-0.6-22.9-2.2c-9.4-2.1-18.2-6.1-25.9-11.9c-8.2-6.1-16.8-11.7-24.8-18.1
			c-7.2-5.8-13.7-12.5-20.7-18.5c-7.9-6.7-17.2-10.1-27.6-8.4c-3.7,0.6-7.5,1.6-10.3,5c-2.7,3.2-6.3,5.6-9.8,8.6
			c-4-1.9-0.8-4.5,0.3-6.6c3.6-6.9,8.7-13.3,10.8-20.5c1.9-6.2,0.8-13.3,0.3-20c-0.4-4.8-1.5-9.4-3.2-13.9
			c-2.3-6.6-4.7-13.3-8.3-19.1c-4.3-7-10-13.3-15.9-20.9c-3.7,7-6.8,12.6-9.6,18.5c-3.5,7.3-6.7,14.8-10.2,22.2
			c-4.8,9.8-10.7,19.2-14.5,29.4c-2.5,6.7-5.1,14.4-1,21.9c0.1,0.3,0.2,0.6,0.2,0.9c0.6,9.6,2.2,19.2,1.6,28.7
			c-0.6,9.1-2.4,18.1-5.2,26.9c-2.6,8.2-11.6,9.5-17.6,3.6c-8.9-8.7-15.9-18.8-22.1-29.4c-5-8.6-10.5-17.1-14.7-26.1
			c-2.6-5.7-3.4-12.2-4.8-18.4c-1.9-8.5-3.9-17-5.1-25.6c-1.1-8.4-4.8-15.6-8.8-22.6c-4.4-8.1-11.6-14.3-20.2-17.7
			c-6-2.2-12.2-3.6-18.2-5.7c-4.8-1.7-9.4-3.9-14.1-5.9c-1-0.4-2-0.8-4-1.6c0.9,6,1.6,11.1,2.7,16c1.4,6.5,3.5,12.9,4.8,19.4
			c1,5.3,2.2,10.9,1.6,16.1c-0.9,8.4-3.1,16.8-4.8,25.2c-0.7,3.6-1.8,7.1-2.1,10.7c-0.8,8.4-1.3,16.8-1.9,25.1
			c-0.5,7,1.9,13.1,6,18.8c1.9,2.6,3.8,5.4,4.5,8.4c0.8,3.5,1.3,7.3-2.4,10.1c-4.5,3.6-8.4,8.3-13.4,10.9c-3.4,1.7-9,2.1-12.2,0.4
			c-6.2-3.2-11.9-7.5-15.3-14.4c-2.9-5.8-7.7-10.6-10.4-16.4c-2.9-6.2-4.1-12.7-2.2-20.2c2.2-8.4,7.2-14.1,12.2-20.6
			c4.2-5.4,7-12,9.8-18.4c2.2-5.1,3.6-10.7,5.1-16.1c1.1-3.5,1.8-7.1,2.1-10.7c0.7-17.1,1.3-34.1,1.7-51.2c-0.2-2-1.2-3.8-2.7-5
			c-9-6.4-17.1-13.6-21.5-24c-2-4.6-3.8-9.6-4.1-14.6c-0.4-5.3,3.7-8.9,7.7-12c1.7-1.4,3.1-3.2,4.8-4.6c5.2-4,10.1-8.5,15.7-11.7
			c9-5,15.9,0.3,22.1,6.2c7.5,7.1,14.3,15,22,21.8c8.4,7.5,17.5,14.1,26.3,21.2c1.7,1.4,3.2,3,4.8,4.4c7.6,7.1,15.8,13.7,22.6,21.5
			c5.3,6.1,12.1,11.5,14.6,19.8c0.5,1.3,0.9,2.7,1,4.2c0.1,5.8-0.1,11.7,0.1,17.5c0.3,7.7,2.2,14.8,7.4,20.9s7.5,6.1,13.5,0.6
			c5-4.7,6.7-11,9.5-16.9c5.2-11.3,11.2-22.1,15.7-33.6c3.9-10.3,4.4-21.1,0-31.9c-3.3-8.1-6.5-16.6-7.9-25.2s5.5-14.1,12.1-17.7
			c6.2-3.5,13.5-4.9,20.3-7.4c3-1.1,5.8-2.4,8.6-3.9c3.5-1.9,6.2-0.1,8.4,1.9c8.2,7.3,16.4,14.7,24.1,22.5
			c4.4,4.5,7.5,10.3,11.8,14.9c2.8,3,6.7,5,11,8c1.1-2.9,2.2-5.1,2.8-7.4c1.2-4.3,2.7-8.7,3-13.1c0.5-7.8,0-15.6,0.2-23.4
			c0.1-2.7,0.9-5.4,1.4-8.1c0.3-1.2,0.3-2.4,0.2-3.5c-0.3-1.8-1.8-4.7-1.3-5.1c2.6-1.9,5.4-3.4,8.4-4.4c7.4-2.5,14.8-5.6,22.4-6.8
			c9.1-1.4,18.9-2.4,26.6,4.6c3,2.8,4.6,7.2,6.7,11c2.3,4.1,3.9,8.8,6.8,12.4c7.4,9.4,17.1,16.8,28.2,21.2
			c8.4,3.3,17.1,5.8,25.9,7.7c7,1.3,14,1.9,21.1,1.8c5.3,0.1,10,1.6,14.8,3.4c7.2,2.8,14.6,4.9,21.7,7.6c6.9,2.6,12.6,6.3,16.9,12.9
			c4.7,6.9,7.1,15.1,6.7,23.5c-0.2,7.5-3.6,13.6-6.9,20c-5,9.7-14,12.9-23.5,15.5c-2.3,0.6-4.5,1.3-6.7,2.1
			c-5.2,2.1-8.8,0.8-11.7-4.1c-2.9-5-5.9-9.9-9.2-14.7c-0.6-0.9-2.5-1.2-3.8-1.4s-3,0.1-4.5-0.2c-0.8-0.2-1.3-1.1-2-1.7
			c0.6-0.6,1.1-1.5,1.7-1.6c4.8-0.3,6.3-4.2,6.8-7.5c1.2-8.5,1.2-17.5-3.6-24.9c-5.4-8.4-12.3-15.7-22.9-18.2
			c-10-2.4-19-7.3-27.6-13.3c-5.4-3.8-11.5-6.7-17.5-9.7s-12.2-5.8-18.4-8.5c-1.1-0.4-2.3-0.6-3.5-0.6c-9.7-0.4-16.5,5.4-17.7,15
			c-0.9,7,5.1,15.2,12.6,17.1c7.2,1.9,13,6.2,18.8,10.5c5.3,4,11,7.3,16.6,11c6.8,4.4,13.5,8.8,20.3,13.2c2.8,1.8,5.6,3.6,8.4,5.3
			c5.8,3.6,11.6,7,17.3,10.7c0.7,0.4,0.8,1.7,1.2,2.6L1099.8,127.2z M949.8,107.7c0.4-4.5-1.7-8.8-5.5-11.2
			c-8.1-5.5-23.9,1.7-25.5,12.3c-0.6,3.3-0.5,6.7,0.2,9.9c1.1,5.5,3.2,10.3,7.4,13.9s10.8,6.2,15-0.6
			C945.8,125.2,950,117.9,949.8,107.7z"/>
		<path class="st1" d="M1568.5,200.2c-2.7-9.4-5-17.1-7.1-25c-0.8-3.4-1.5-6.8-2-10.3c-1.3-7.5-2.2-15-3.8-22.4
			c-2.4-10.9-6.5-21-14.8-28.9c-2.3-2.2-1.9-3.4,1.2-4c0.9-0.2,2.2-0.5,2.6-1.2c6.7-11.4,10.8-9.2,18.9-2.5
			c5.2,4.6,9.8,9.9,13.5,15.7c3.5,5.2,6,11.2,8.5,17c1.2,3,2,6.1,2.4,9.3c0.8,5.5,1.1,11.1,2,16.6c0.8,4.6,2.7,8.9,3.3,13.5
			c1,7.4,1.3,15,2,22.4c0.5,6-0.2,12.1-3.6,16.9c-7.7,10.9-10.9,24.6-22.5,33.1c-6.7,4.9-7.7,6.4-14.9,2.4c-6.3-3.5-12-8-18-12
			c-8-5.4-15.8-11.2-24.1-16c-13.3-7.7-27.2-14.4-40.4-22.2c-9.6-5.6-18.2-12.6-26.5-20.2c-7.1-6.5-14.1-13.7-23.6-17.4
			c-6.9-2.7-16.9,1.4-18.6,8.5c-1.7,6.9-3.5,13.7-5.3,20.6c-0.3,0.8-0.7,1.6-1.3,2.2c-11.7,12.5-23.3,25.1-35.2,37.3
			c-2.1,2.2-5.6,3-8.4,4.6c-7.2,4.1-14.1,8.6-21.5,12.3c-3.6,1.6-7.4,2.6-11.2,2.8c-9.3,0.9-18.6,1.3-27.8,2
			c-5.8,0.4-11.7,1.7-17.5,1.5c-5.4-0.2-10.9-1.7-16.2-3.1c-8.7-2.3-17.5-4.6-25.9-7.7c-5.5-2-10.3-5.8-15.6-8.5
			c-8.4-4.4-13.4-11.8-16.2-20.2c-2.9-8.9-4.4-18.2-1.3-27.7c1.3-3.9,0.9-8.2,2.3-12c2.4-6.2,4.9-12.6,8.6-18
			c7.1-10.6,11.2-21.6,9.2-34.4c-0.8-5-2.3-9.9-3.3-14.8c-0.4-2.1-0.4-4.2-0.1-6.2c2.7-13.1,8-25.5,15.4-36.6
			c5.9-9,11.7-18.1,20-24.9c6.3-5.2,13.3-9.6,19.9-14.5c8-5.9,17.7-7.8,26.5-11.6c0.3-0.1,0.6-0.1,0.9-0.1
			c10.2-0.6,20.4-1.6,30.6-1.7c8.1,0.1,16.2,0.7,24.2,1.8c6.2,0.7,12.3,2.1,18.4,3.4c0.8,0.2,1.3,1.6,1.9,2.4
			c-0.8,0.5-1.7,0.9-2.6,1.2c-6.4,1.7-12.9,3.4-19.3,5c-5.4,1.4-10.7,2.6-16.1,4c-5.1,1.3-10.3,2.3-15.1,4.2
			c-6.1,2.4-12,5.2-17.7,8.3c-6.4,3.5-8.3,5.8-4.5,12.3c1.6,2.9,3.5,5.6,5.6,8.2c5.3,6.2,10.6,12.3,16.2,18
			c3.1,3.2,7.2,5.4,10.3,8.6c5.3,5.2,7.3,11.3,4.1,18.8c-2.7,6.4-0.3,12.3,6.1,15.3c7.7,3.7,15.4,7.7,23.5,10.2
			c7.6,2.3,15.2-0.1,22-4.1c2.8-1.6,5.2-3.6,7.3-6c8.4-10.3,19.8-13.4,31.7-10.6c10,2.4,17.5-1.5,25.8-4.8
			c5.2-2.1,10.8-3.3,16.3-4.5c7.3-1.7,12.8,3.2,19,5.6c3.1,1.2,6.2,2.4,9.2,3.9c1.1,0.6,1.8,1.7,2.1,2.9c0.1,0.6-1.4,1.5-2.3,2.1
			c-2.1,1.7-4.9,2.9-6.3,5c-3.8,5.6-2.7,9.1,2.2,14c9,9,18.8,17.3,28,26.1c8,7.7,15.5,15.8,23.6,23.4c4.5,4.2,9.2,8.4,16,8.8
			C1562.1,197.9,1564.8,199.2,1568.5,200.2z M1331.7,227c0-0.2,0-0.4,0.1-0.6c2.8,0,5.7-0.2,8.5,0c9.1,0.7,15.7-3.6,21.2-10.2
			c5.1-6.1,5-13-0.8-18.2c-6.1-5.5-12.6-10.6-19-15.7c-9-7.2-19.7-8.7-30.7-9.9c-5-0.5-9.9-1.2-14.8-2c-2.7-0.4-5.4-1.1-8-2.1
			c-8.3-3.8-16.5-7.9-24.8-11.7s-20.2-3.6-26.3,4.9c-2.9,4.1-5,13.3-2.1,16c8.2,7.9,16.1,16.4,25.3,23.1c8.5,6.3,18.4,11,27.8,15.9
			c5.8,3,11.8,6.2,18,7.6C1314.5,226.1,1323.2,226.2,1331.7,227z"/>
		<path class="st1" d="M579.9,63.1c1.6,2.4,2.9,3.5,3,4.7c1.1,10.7,7.8,16.9,16.8,21c2,0.9,4.7,0.6,7.1,0.6
			c8.7-0.2,15.1,4.1,20,10.7c1.6,2.3,2.6,4.9,2.8,7.7c0.9,8.7,2,17.4,1.7,26c-0.2,7.3,2.3,13.6,4.6,20c3.9,10.7,9,21,13.1,31.7
			c1.4,3.9,2.1,8,2.1,12.1c0.3,10.6,0.7,21.3-0.1,31.9c-0.7,9.4-5.6,19.1-17.5,21.9c-4.8,1.1-9.9,4-14.3,3.1
			c-10.7-2.1-21.3-1.3-32-1.3c-4.5,0-9,1.9-13.6,2.9c-3.4,0.8-6.8,1.7-10.2,2.2c-5.8,0.8-11.7,1.5-17.5,1.9
			c-11.4,0.8-22.8,1.2-34.1,2c-5,0.3-10.1,2.3-14.8,1.4c-8-1.5-17.5-0.1-22.9-8.5c-1.2-1.9-2.4-4.1-2.5-6.2
			c-0.3-8.1,0.1-16.2-0.2-24.2c-0.3-8.9-1.2-17.7-1.8-26.5c-0.6-7.8-1-15.6-1.8-23.4c-0.4-5.1-1.1-10.2-2-15.2
			c-0.7-3.4-8.6-8.9-12.7-8.9c-12.9,0.1-25.6-3-37-9c-6-3.1-11.3-7.5-13.3-14.8c-1.7-6.2-4.7-12.1-6.4-18.4
			c-1.2-4.8-1.9-9.8-2.1-14.8c-0.4-5.5,0.1-11.1-0.1-16.6c-0.3-9.3,1-18.5,3.9-27.3c1.4-4.5,4.6-8.8,7.8-12.3
			c4.9-5.3,10.3-10.2,16-14.6c5.4-4.3,11.2-8.1,17.3-11.4c4.6-2.3,10-4.5,14.9-4.2c5.5,0.4,11.6,1.2,15.9,5.9
			c4.6,4.9,9.5,9.5,14.2,14.2c5.5,5.5,8,12.7,10.5,19.7c2.1,6,4.2,12.1,5,18.4c0.6,4.1-1.2,8.6-1.8,12.9c-0.8,6-3,11.3-2,18.1
			c1.6,9.6,6.2,16.3,13.1,21.8c5.7,4.6,12.1,8.3,18.1,12.5c7.7,5.4,15.6,10.5,22.9,16.3c6.9,5.5,13.4,11.5,19.5,17.8
			c5.5,5.7,10.2,12.2,15.4,18.2c1,0.7,2.2,0.9,3.4,0.6c6.3-2.4,9.2-8.2,12.4-13.4c2.2-3.4,3.5-7.4,5.1-11.2c0.9-2.1-2.8-10.7-5-11.9
			c-4.6-2.4-9.2-4.8-13.8-7.1c-6.1-2.9-9.5-12.1-6.7-18.3c0.3-0.4,0.5-0.8,0.6-1.2c0.7-7,1.5-14.1,1.9-21.1c0.1-1.9-0.7-3.8-2-5.2
			c-3.8-3.2-3.2-7.4-3.2-11.4c0-4.3-0.2-8.7,0.1-13C577.9,67.9,578.9,66.1,579.9,63.1z"/>
		<path class="st1" d="M2528.1,76.7c-1.7-10.2,0.8-13.8,11.6-20.9c10.3-6.7,21.6-10.6,33-14.3c4.9-1.6,10.4-1.4,15.7-2.1
			c3.2-0.4,6.3-1.1,9.4-1.6c1.5-0.2,3-0.3,4.5-0.1c4.2,0.5,8.4,1,12.6,1.7c2.5,0.3,4.9,0.9,7.1,1.9c7,3.2,14.1,6,20.2,11.4
			c9.5,8.5,6.7,16.5-1.4,22.6c-6.5,4.8-13.3,9.2-20.4,13c-3.2,1.8-7.1,2.3-10.8,3c-7.1,1.3-14.4,2.4-21.6,3.5
			c-0.9,0.1-1.8,0.1-2.7-0.1c-3.8-0.5-7.5-1.3-11.2-1.6c-10.5-0.9-21.1-2.2-30.2-7.6c-4-2.3-7.5-3.9-11.9-3c-4.4,1-8.7,2.2-13,3.6
			c-9,3-17.2,7.5-23.9,14.4c-4.3,4.3-5.5,10.9-3,16.5c0.8,1.9,1.4,3.7,2.3,5.5c1.3,2.6,3.7,2.6,6.3,3.1c19,3.2,38.1,0.7,57.1,1.8
			c8.9,0.5,17.8,1.8,26.5,3.7c12.4,2.7,24.4,7.3,34.1,15.5c7.2,6.2,13.9,13.7,16.1,23.6c1.3,5.9,3,11.9,3.3,18
			c0.5,8.2-1.6,16.4-6,23.4c-7.7,12.1-17.7,21-31.7,25.7c-7.4,2.7-15.1,4.4-22.9,5.1c-4.7,0.4-9.4,1.8-13.9,1.5c-6-0.4-12-2-18-3.1
			c-1.6-0.2-3.3-0.3-4.9-0.3c-16,0-32.1,0.3-48.1-0.2c-7.7-0.2-15.3-2.2-22.9-3.2c-6-0.8-12-1.4-17.9-2.1c-10.3-1.2-20.6-2.3-31-3.4
			c-5.4-0.6-10.8-0.9-16.1-2c-11.6-2.4-22.7-4.9-29.4-16.9c-3.9-6.9-7.3-13.4-6.4-21.2c1.1-9.8,3.6-17.5,14.5-19.6
			c5.6-1.1,13-9.5,12.6-16.2c-0.4-6.3-1.6-12.4-3.4-18.4c-3.5-11.7-2.7-23,7.4-31.5c6.5-5.5,13.2-11,20.8-14.6
			c4.6-2.2,10.8-0.7,16.3-0.8c0.8,0,1.6,0.8,2.4,0.9c7.9,0.7,15.9,1.9,23.8,1.7c5.3-0.1,10.6-1.8,15.8-3.1
			c6.8-1.7,13.4-3.8,20.1-5.8c7.1-2.1,14.1-4.6,21.1-6.6C2522.4,76.9,2525.2,77,2528.1,76.7z M2542.6,232.4
			c-1.9-4.8-3.5-8.1-4.4-11.7c-2.2-8.3-4.5-16.6-6-25c-1.2-6.7-2.6-13.2-6.1-19c-1.2-2-4-4.2-6.1-4.2c-8.2,0-16.4-1.2-24.2-3.8
			c-6.6-2.2-13-4.9-19.7-6.5c-2.9-0.7-5.4-2.9-9.4-1.4c-6.1,2.3-12.5,5.1-19.6,4.3c-4.6-0.5-9.3,0.2-13.9-0.2
			c-9.1-0.9-16.1,2.7-22.2,9.2c-4.8,5.2-4,12.4,2.1,15.8c0.9,0.4,1.8,0.9,2.6,1.5c11.8,9.2,25.8,13.5,39.6,18.4
			c7.8,2.8,15.8,4.9,23.2,8.6c13.7,6.8,27.5,12.4,43.1,11.3c0.7,0,1.5,0,2.2,0.2L2542.6,232.4z"/>
	</g>
</g>
</svg>
